<svg width="167" height="103" viewBox="0 0 167 103" fill="none" xmlns="http://www.w3.org/2000/svg">
<path d="M3.84791 73.8762H0.710724V70.7884H10.3181V73.8762H7.22235V86.248H3.85022V73.8762H3.84791Z" fill="#001D54"/>
<path d="M11.4076 70.7884H14.7797V76.8146H18.5803V70.7884H21.9524V86.248H18.5803V79.8817H14.7797V86.248H11.4076V70.7884Z" fill="#001D54"/>
<path d="M24.0024 70.7884H31.4953V73.8555H27.3331V76.9846H30.4703V79.6888H27.3331V83.1809H31.4953V86.248H24.0024V70.7884Z" fill="#001D54"/>
<path d="M34.7614 78.6457C34.7614 74.1955 37.1961 70.4691 40.9736 70.4691C42.3188 70.4691 43.3231 70.9377 43.8989 71.5764L43.9634 75.5786C43.1319 74.1955 42.3626 73.6625 41.3583 73.6625C39.564 73.6625 38.2833 75.6636 38.2833 78.6664C38.2833 81.5198 39.4788 83.3716 41.2293 83.3716C42.1898 83.3716 43.1296 82.8179 44.0463 81.4118L43.6409 85.3727C43.0858 86.055 42.0608 86.565 40.6949 86.565C37.1961 86.5673 34.7614 83.0109 34.7614 78.6457Z" fill="#3CA3FF"/>
<path d="M45.2441 70.7884H48.6393V83.1166H52.9719V86.2457H45.2441V70.7884Z" fill="#3CA3FF"/>
<path d="M53.9762 70.7884H61.469V73.8555H57.3069V76.9846H60.444V79.6888H57.3069V83.1809H61.469V86.248H53.9762V70.7884Z" fill="#3CA3FF"/>
<path d="M65.4631 70.7884H69.9685L73.5548 86.248H70.0952L69.4548 83.1189H65.8685L65.2696 86.248H61.833L65.4631 70.7884ZM68.9412 80.1781L67.6605 73.8325L66.4651 80.1781H68.9412Z" fill="#3CA3FF"/>
<path d="M74.4071 70.7884H77.3968L81.4945 79.9874V70.7884H84.5695V86.248H81.559L77.5235 77.134V86.248H74.4071V70.7884Z" fill="#3CA3FF"/>
<path d="M86.661 70.7884H90.0562V86.248H86.661V70.7884Z" fill="#3CA3FF"/>
<path d="M92.1476 70.7884H95.1351L99.2328 79.9874V70.7884H102.308V86.248H99.2973L95.2618 77.134V86.248H92.1453V70.7884H92.1476Z" fill="#3CA3FF"/>
<path d="M103.485 78.54C103.485 74.1105 106.302 70.4691 110.273 70.4691C111.468 70.4691 112.684 70.8091 113.454 71.3857L113.518 75.0065C112.579 74.0485 111.618 73.6648 110.593 73.6648C108.223 73.6648 106.986 75.9002 106.986 78.648C106.986 81.2878 108.075 83.5232 110.146 83.5232C110.36 83.5232 110.595 83.5025 110.786 83.4382V80.2447H108.971V77.3063H113.859V85.4416C113.154 86.0803 111.682 86.5696 110.123 86.5696C106.24 86.5673 103.485 83.2016 103.485 78.54Z" fill="#3CA3FF"/>
<path d="M118.153 70.7884H122.55C126.03 70.7884 127.438 72.8331 127.438 75.0249C127.438 76.3666 126.862 77.5154 125.793 78.262C126.903 78.9651 127.608 80.0931 127.608 81.5842C127.608 83.9689 126.028 86.248 122.805 86.248H118.15V70.7884H118.153ZM124.215 75.2822C124.215 74.3035 123.531 73.6005 122.764 73.6005H121.398V77.072H122.679C123.531 77.0697 124.215 76.3666 124.215 75.2822ZM124.344 81.4785C124.344 80.1804 123.469 79.6267 122.743 79.6267H121.398V83.4382H122.743C123.531 83.4359 124.344 82.7559 124.344 81.4785Z" fill="#3CA3FF"/>
<path d="M128.806 80.0081V70.7884H132.178V80.1138C132.178 82.4985 133.097 83.3073 134.163 83.3073C135.253 83.3073 136.149 82.4985 136.149 80.1138V70.7884H139.544V80.0081C139.544 84.5869 137.174 86.5673 134.163 86.5673C131.176 86.5673 128.806 84.5869 128.806 80.0081Z" fill="#3CA3FF"/>
<path d="M141.465 70.7884H148.638V73.8762H144.837V77.4533H147.997V80.3711H144.837V86.248H141.465V70.7884Z" fill="#3CA3FF"/>
<path d="M149.812 70.7884H156.985V73.8762H153.185V77.4533H156.345V80.3711H153.185V86.248H149.812V70.7884Z" fill="#3CA3FF"/>
<path d="M157.69 84.927V80.7525C158.31 82.0505 159.975 83.4566 161.468 83.4566C162.237 83.4566 162.983 82.9466 162.983 81.9655C162.983 81.0282 162.407 80.5388 160.827 79.6015C158.821 78.4298 157.497 77.003 157.497 74.8963C157.497 72.0865 159.802 70.4668 162.278 70.4668C163.944 70.4668 165.054 71.1905 165.609 71.8085L165.8 75.6406C164.796 74.4919 163.559 73.5316 162.299 73.5316C161.465 73.5316 160.825 74.0416 160.825 74.894C160.825 75.8957 161.744 76.277 163.174 77.1937C165.224 78.5354 166.335 79.8128 166.335 81.8576C166.335 84.5823 164.22 86.5628 161.509 86.5628C159.996 86.5674 158.524 85.9493 157.69 84.927Z" fill="#3CA3FF"/>
<path d="M26.4693 92.8371H27.4667L26.2689 99.5916H29.7654L29.595 100.511H25.1126L26.4693 92.8371Z" fill="#3CA3FF"/>
<path d="M29.9958 98.2178C29.9958 96.621 31.0991 95.0266 32.8036 95.0266C34.0751 95.0266 34.8697 95.8606 34.8697 97.1081C34.8697 97.1931 34.8582 97.2253 34.849 97.3723L34.7315 98.0592H30.9494C30.9379 98.1236 30.9379 98.1764 30.9379 98.2384C30.9379 99.1275 31.4469 99.803 32.5687 99.803C33.1629 99.803 33.6927 99.6123 34.1465 99.2953L33.8701 100.246C33.5199 100.478 33.0109 100.637 32.4397 100.637C30.8964 100.637 29.9958 99.6238 29.9958 98.2178ZM34.0129 97.0667C34.0129 96.3384 33.5361 95.8192 32.7529 95.8192C31.9053 95.8192 31.2373 96.4326 31.0576 97.3309V97.3424H33.9921C34.0014 97.2459 34.0129 97.1494 34.0129 97.0667Z" fill="#3CA3FF"/>
<path d="M35.2406 98.3441C35.2406 97.455 35.5262 96.6325 36.003 96.0191C36.4798 95.4057 37.157 95.0243 37.9217 95.0243C38.6104 95.0243 39.2669 95.3735 39.4995 96.1454L39.7437 95.1529H40.5913L39.6377 100.511H38.7463L38.873 99.6123C38.4906 100.235 37.8987 100.637 37.157 100.637C36.0675 100.637 35.2406 99.7501 35.2406 98.3441ZM38.7693 99.0839C39.1079 98.5876 39.2461 97.7215 39.2461 97.2459C39.2461 96.389 38.6841 95.8606 37.9539 95.8606C37.4449 95.8606 37.0211 96.1248 36.7239 96.559C36.4176 96.9932 36.2149 97.648 36.2149 98.2706C36.2149 99.2746 36.7032 99.8352 37.4656 99.8352C37.9862 99.8352 38.4307 99.5709 38.7693 99.0839Z" fill="#3CA3FF"/>
<path d="M41.174 95.1529H42.1276L42.7956 99.2746L45.0529 95.1529H46.0595L42.9868 100.511H42.1714L41.174 95.1529Z" fill="#3CA3FF"/>
<path d="M45.7094 98.2178C45.7094 96.621 46.8127 95.0266 48.5172 95.0266C49.7887 95.0266 50.5833 95.8606 50.5833 97.1081C50.5833 97.1931 50.5718 97.2253 50.5626 97.3723L50.4451 98.0592H46.663C46.6515 98.1236 46.6515 98.1764 46.6515 98.2384C46.6515 99.1275 47.1605 99.803 48.2823 99.803C48.8765 99.803 49.4063 99.6123 49.8601 99.2953L49.5837 100.246C49.2335 100.478 48.7245 100.637 48.1533 100.637C46.61 100.637 45.7094 99.6238 45.7094 98.2178ZM49.7265 97.0667C49.7265 96.3384 49.2497 95.8192 48.4665 95.8192C47.6189 95.8192 46.9509 96.4326 46.7712 97.3309V97.3424H49.7057C49.7149 97.2459 49.7265 97.1494 49.7265 97.0667Z" fill="#3CA3FF"/>
<path d="M53.0617 98.1856C53.0617 96.559 54.2388 95.0243 55.9225 95.0243C56.6642 95.0243 57.2262 95.3092 57.5533 95.6905L57.3829 96.683C56.9798 96.1018 56.4707 95.8697 55.9525 95.8697C54.8192 95.8697 54.0338 97.0116 54.0338 98.1534C54.0338 99.1459 54.628 99.803 55.4849 99.803C55.9617 99.803 56.4915 99.6123 56.8946 99.2861L56.5974 100.269C56.2796 100.492 55.835 100.639 55.3375 100.639C54.0476 100.637 53.0617 99.6651 53.0617 98.1856Z" fill="#3CA3FF"/>
<path d="M58.9653 92.6786H59.9189L58.5299 100.511H57.5764L58.9653 92.6786Z" fill="#3CA3FF"/>
<path d="M59.8866 98.2178C59.8866 96.621 60.9899 95.0266 62.6944 95.0266C63.9659 95.0266 64.7606 95.8606 64.7606 97.1081C64.7606 97.1931 64.749 97.2253 64.7398 97.3723L64.6224 98.0592H60.8402C60.8287 98.1236 60.8287 98.1764 60.8287 98.2384C60.8287 99.1275 61.3377 99.803 62.4595 99.803C63.0538 99.803 63.5835 99.6123 64.0373 99.2953L63.7609 100.246C63.4108 100.478 62.9017 100.637 62.3305 100.637C60.7872 100.637 59.8866 99.6238 59.8866 98.2178ZM63.9014 97.0667C63.9014 96.3384 63.4246 95.8192 62.6415 95.8192C61.7938 95.8192 61.1258 96.4326 60.9462 97.3309V97.3424H63.8807C63.8922 97.2459 63.9014 97.1494 63.9014 97.0667Z" fill="#3CA3FF"/>
<path d="M65.1314 98.3441C65.1314 97.455 65.417 96.6325 65.8938 96.0191C66.3706 95.4057 67.0478 95.0243 67.8125 95.0243C68.5012 95.0243 69.1577 95.3735 69.3903 96.1454L69.6345 95.1529H70.4821L69.5285 100.511H68.6371L68.7638 99.6123C68.3815 100.235 67.7895 100.637 67.0478 100.637C65.9583 100.637 65.1314 99.7501 65.1314 98.3441ZM68.6602 99.0839C68.9988 98.5876 69.137 97.7215 69.137 97.2459C69.137 96.389 68.5749 95.8606 67.8448 95.8606C67.3357 95.8606 66.9119 96.1248 66.6148 96.559C66.3084 96.9932 66.1057 97.648 66.1057 98.2706C66.1057 99.2746 66.594 99.8352 67.3565 99.8352C67.8747 99.8352 68.3193 99.5709 68.6602 99.0839Z" fill="#3CA3FF"/>
<path d="M71.8365 95.1529H72.7487L72.6312 96.0191C73.055 95.3965 73.67 95.0358 74.3587 95.0358C75.2386 95.0358 75.8743 95.6285 75.8743 96.7267C75.8743 96.9381 75.8536 97.1379 75.8098 97.4021L75.2593 100.511H74.285L74.8263 97.4458C74.8678 97.2344 74.8793 97.0874 74.8793 96.9289C74.8793 96.1891 74.4877 95.8514 73.9579 95.8514C73.3015 95.8514 72.6012 96.4005 72.4216 97.3309L71.8595 100.513H70.8852L71.8365 95.1529Z" fill="#3CA3FF"/>
<path d="M77.4314 95.1529H78.4057L77.4636 100.511H76.4893L77.4314 95.1529ZM77.5903 93.4092C77.5903 93.0186 77.9197 92.7222 78.2906 92.7222C78.6291 92.7222 78.8733 92.9543 78.8733 93.315C78.8733 93.7262 78.5439 94.0019 78.1731 94.0019C77.8138 93.9996 77.5903 93.7354 77.5903 93.4092Z" fill="#3CA3FF"/>
<path d="M79.7831 95.1529H80.6953L80.5778 96.0191C81.0016 95.3965 81.6166 95.0358 82.3053 95.0358C83.1852 95.0358 83.8209 95.6285 83.8209 96.7267C83.8209 96.9381 83.8002 97.1379 83.7565 97.4021L83.2059 100.511H82.2316L82.7729 97.4458C82.8144 97.2344 82.8259 97.0874 82.8259 96.9289C82.8259 96.1891 82.4343 95.8514 81.9045 95.8514C81.2481 95.8514 80.5479 96.4005 80.3682 97.3309L79.8062 100.513H78.8318L79.7831 95.1529Z" fill="#3CA3FF"/>
<path d="M84.2655 101.949L84.4452 100.977C84.869 101.6 85.4402 101.896 86.099 101.896C86.9996 101.896 87.6031 101.303 87.8058 100.132L87.9325 99.3918C87.5616 99.9845 87.0203 100.343 86.3846 100.343C85.4103 100.343 84.4981 99.4974 84.4981 98.1235C84.4981 96.644 85.5577 95.0266 87.0411 95.0266C87.6768 95.0266 88.2918 95.3229 88.5567 96.0421L88.7801 95.1552H89.607L88.7179 100.196C88.4208 101.855 87.405 102.7 86.069 102.7C85.2928 102.7 84.5834 102.413 84.2655 101.949ZM87.944 98.7048C88.1974 98.2499 88.3263 97.6595 88.3263 97.2252C88.3263 96.3155 87.7551 95.8399 87.0871 95.8399C85.9746 95.8399 85.4448 97.1609 85.4448 98.0592C85.4448 98.946 85.9331 99.5503 86.6748 99.5503C87.2438 99.5503 87.6791 99.1689 87.944 98.7048Z" fill="#3CA3FF"/>
<path d="M90.2842 100.681C89.8811 100.648 89.713 100.352 89.713 100.026C89.713 99.5709 90.0953 99.2654 90.4754 99.2654C90.8877 99.2654 91.1434 99.5617 91.1434 99.9937C91.1434 100.775 90.5399 101.855 89.6278 102.415H88.7479C89.5011 101.937 90.04 101.368 90.2842 100.681Z" fill="#3CA3FF"/>
<path d="M94.0134 99.8145L94.2253 98.7462C94.5017 99.3274 95.1789 99.8352 95.8261 99.8352C96.3974 99.8352 96.812 99.4653 96.812 99.0104C96.812 98.5991 96.4941 98.3878 95.9321 98.1006C95.2111 97.7192 94.5961 97.3286 94.5961 96.5797C94.5961 95.6492 95.4852 95.0266 96.4826 95.0266C97.1506 95.0266 97.7863 95.3115 98.1042 95.702L98.0097 96.7589C97.6389 96.1891 97.0032 95.8284 96.4411 95.8284C95.9643 95.8284 95.5405 96.0811 95.5405 96.536C95.5405 96.9381 95.8584 97.1058 96.4826 97.4343C97.1068 97.7514 97.7333 98.1098 97.7333 98.9254C97.7333 99.9087 96.8534 100.628 95.7847 100.628C95.0522 100.628 94.3312 100.29 94.0134 99.8145Z" fill="#3CA3FF"/>
<path d="M99.0785 99.1804C99.0785 99.0012 99.0992 98.7898 99.143 98.5578L99.5991 95.9777H98.475L98.6224 95.1529H99.7465L100.064 93.377L101.124 92.8072L100.712 95.1529H102.354L102.216 95.9777H100.562L100.127 98.4406C100.094 98.6106 100.041 98.8426 100.041 99.0425C100.041 99.4331 100.212 99.7501 100.718 99.7501C100.972 99.7501 101.313 99.6651 101.619 99.5503L101.175 100.449C101.016 100.522 100.783 100.575 100.497 100.575C99.5346 100.575 99.0785 100.035 99.0785 99.1804Z" fill="#3CA3FF"/>
<path d="M102.225 98.3441C102.225 97.455 102.511 96.6325 102.987 96.0191C103.464 95.4057 104.141 95.0243 104.906 95.0243C105.595 95.0243 106.251 95.3735 106.484 96.1454L106.728 95.1529H107.576L106.622 100.511H105.731L105.857 99.6123C105.475 100.235 104.883 100.637 104.141 100.637C103.052 100.637 102.225 99.7501 102.225 98.3441ZM105.754 99.0839C106.092 98.5876 106.23 97.7215 106.23 97.2459C106.23 96.389 105.668 95.8606 104.938 95.8606C104.429 95.8606 104.005 96.1248 103.708 96.559C103.402 96.9932 103.199 97.648 103.199 98.2706C103.199 99.2746 103.688 99.8352 104.45 99.8352C104.97 99.8352 105.415 99.5709 105.754 99.0839Z" fill="#3CA3FF"/>
<path d="M108.932 95.1529H109.801L109.683 95.9869C109.99 95.4057 110.446 95.0243 111.008 95.0243C111.314 95.0243 111.505 95.1185 111.655 95.215L111.634 96.1661C111.411 96.0283 111.125 95.9134 110.819 95.9134C110.098 95.9134 109.633 96.4533 109.474 97.3723L108.923 100.511H107.981L108.932 95.1529Z" fill="#3CA3FF"/>
<path d="M112.461 99.1804C112.461 99.0012 112.482 98.7898 112.526 98.5578L112.982 95.9777H111.855L112.003 95.1529H113.127L113.445 93.377L114.504 92.8072L114.092 95.1529H115.734L115.596 95.9777H113.942L113.507 98.4406C113.475 98.6106 113.422 98.8426 113.422 99.0425C113.422 99.4331 113.592 99.7501 114.099 99.7501C114.352 99.7501 114.693 99.6651 114.999 99.5503L114.555 100.449C114.396 100.522 114.163 100.575 113.878 100.575C112.915 100.575 112.461 100.035 112.461 99.1804Z" fill="#3CA3FF"/>
<path d="M119.092 92.6786H120.046L118.657 100.511H117.704L119.092 92.6786Z" fill="#3CA3FF"/>
<path d="M121.064 95.1529H122.038L121.096 100.511H120.122L121.064 95.1529ZM121.223 93.4092C121.223 93.0186 121.552 92.7222 121.923 92.7222C122.262 92.7222 122.506 92.9543 122.506 93.315C122.506 93.7262 122.177 94.0019 121.806 94.0019C121.444 93.9996 121.223 93.7354 121.223 93.4092Z" fill="#3CA3FF"/>
<path d="M122.653 95.1529H123.607L124.275 99.2746L126.532 95.1529H127.539L124.466 100.511H123.651L122.653 95.1529Z" fill="#3CA3FF"/>
<path d="M128.152 95.1529H129.126L128.184 100.511H127.21L128.152 95.1529ZM128.311 93.4092C128.311 93.0186 128.64 92.7222 129.011 92.7222C129.349 92.7222 129.594 92.9543 129.594 93.315C129.594 93.7262 129.264 94.0019 128.893 94.0019C128.534 93.9996 128.311 93.7354 128.311 93.4092Z" fill="#3CA3FF"/>
<path d="M130.503 95.1529H131.416L131.298 96.0191C131.722 95.3965 132.337 95.0358 133.026 95.0358C133.905 95.0358 134.541 95.6285 134.541 96.7267C134.541 96.9381 134.52 97.1379 134.477 97.4021L133.926 100.511H132.952L133.493 97.4458C133.535 97.2344 133.546 97.0874 133.546 96.9289C133.546 96.1891 133.155 95.8514 132.625 95.8514C131.968 95.8514 131.268 96.4005 131.088 97.3309L130.526 100.513H129.552L130.503 95.1529Z" fill="#3CA3FF"/>
<path d="M134.986 101.949L135.165 100.977C135.589 101.6 136.16 101.896 136.819 101.896C137.72 101.896 138.323 101.303 138.526 100.132L138.653 99.3918C138.282 99.9845 137.741 100.343 137.105 100.343C136.13 100.343 135.218 99.4974 135.218 98.1235C135.218 96.644 136.278 95.0266 137.761 95.0266C138.397 95.0266 139.012 95.3229 139.277 96.0421L139.5 95.1552H140.327L139.438 100.196C139.141 101.855 138.125 102.7 136.789 102.7C136.013 102.7 135.304 102.413 134.986 101.949ZM138.662 98.7048C138.915 98.2499 139.044 97.6595 139.044 97.2252C139.044 96.3155 138.473 95.8399 137.805 95.8399C136.693 95.8399 136.163 97.1609 136.163 98.0592C136.163 98.946 136.651 99.5503 137.393 99.5503C137.964 99.5503 138.397 99.1689 138.662 98.7048Z" fill="#3CA3FF"/>
<path d="M140.528 99.9937C140.528 99.5388 140.898 99.2332 141.29 99.2332C141.693 99.2332 141.937 99.5181 141.937 99.8788C141.937 100.334 141.555 100.639 141.175 100.639C140.772 100.637 140.528 100.343 140.528 99.9937Z" fill="#3CA3FF"/>
<path d="M24.212 44.0506L30.6269 40.0806C32.2554 38.6883 34.3515 38.3391 35.8717 39.0513L37.4265 37.7234C37.8434 37.3673 38.4123 37.3121 38.8776 37.5304L79.5943 2.75839C79.8661 2.52635 80.2738 2.55851 80.5064 2.82961L80.5156 2.8388C80.7483 3.1099 80.716 3.51655 80.4442 3.74859L39.6423 38.5918C39.6907 39.0215 39.5317 39.4649 39.1793 39.7658L37.6246 41.0938C38.0967 42.6997 37.4265 44.7123 35.7957 46.1045L31.0438 52.009L30.1248 50.9384L33.0639 47.1361C33.0639 47.1361 31.1083 49.3577 29.7493 50.5018L29.1504 49.8034L31.3755 47.6185C31.3755 47.6185 30.1847 48.6478 28.957 49.576L25.2393 45.2453C26.6075 44.1861 28.418 43.0397 28.418 43.0397L24.9698 44.9282L24.212 44.0506Z" fill="#001D54"/>
<path d="M132.821 39.52L134.811 33.0251L134.143 32.8206C133.611 32.6575 133.254 32.2003 133.187 31.6834L81.1352 15.7413C80.7874 15.6356 80.5939 15.268 80.6999 14.9211L80.7045 14.9073C80.8104 14.5604 81.179 14.3674 81.5268 14.4731L133.687 30.4473C134.03 30.1716 134.497 30.066 134.949 30.2038L135.615 30.4083L137.724 23.5251C138.1 22.3006 139.401 21.609 140.629 21.9835L142.193 22.4614L135.93 42.8927L134.366 42.4148C133.136 42.0426 132.445 40.7445 132.821 39.52Z" fill="#001D54"/>
<path d="M93.1404 59.9789C93.1818 59.9789 93.2256 59.9766 93.2671 59.9789C94.3704 60.0501 94.4763 59.9145 94.4763 59.9145C94.4763 59.9145 95.9297 58.1868 97.6296 59.4527L98.1825 60.2706C98.1825 60.2706 99.9745 59.4321 100.944 60.9139C100.944 60.9139 102.068 59.8686 103.423 59.7744L104.775 48.271C104.814 47.9379 104.554 47.6438 104.215 47.6438H103.165C103.086 45.0132 100.923 42.895 98.2677 42.895C95.6119 42.895 93.4467 45.0132 93.3707 47.6438H92.3204C91.9841 47.6438 91.7215 47.9356 91.7607 48.271L93.1404 59.9789ZM103.775 48.7971L102.649 58.3752L103.236 49.2934L96.8626 48.7971H103.775ZM98.27 43.8852C100.378 43.8852 102.098 45.5577 102.174 47.6415H94.3658C94.4418 45.5577 96.1624 43.8852 98.27 43.8852Z" fill="#001D54"/>
<path d="M46.3152 22.852C47.2619 23.6676 48.478 27.6192 52.7347 29.0367C52.7347 29.0367 53.1608 28.9081 53.246 28.5221C53.3312 28.1361 54.2572 27.7501 54.0199 27.0402C53.7827 26.3326 53.0088 26.7186 52.9005 25.687C52.7922 24.6555 51.8456 26.073 51.1569 25.0437C50.4682 24.0122 48.9779 22.6888 49.2197 22.2087C49.3049 22.0364 51.3296 19.8262 51.2858 18.5373C51.2858 18.5213 51.2858 18.5121 51.2835 18.4983C51.7442 19.245 56.1367 26.4728 55.5264 29.0367C54.8814 31.7431 50.4037 37.195 50.3599 41.9186C50.3599 41.9186 49.1967 43.0788 49.3694 45.0959C49.3694 45.0959 47.7709 47.7219 46.5754 51.4162C47.3862 51.3933 48.6946 51.5541 49.4086 52.6867C49.4086 52.6867 51.4125 52.0297 52.479 52.3077C53.3082 50.9522 53.99 49.5921 54.0315 48.3744C54.1466 44.8823 54.3194 43.5084 55.6968 42.0771C57.0742 40.6458 59.601 32.8022 63.2749 36.809C66.9488 40.8181 68.211 43.3361 68.211 43.3361C68.211 43.3361 66.6033 47.5152 68.727 50.1503C70.8507 52.7832 70.9152 55.5632 70.3923 57.8239C70.3071 58.1869 70.033 58.4717 69.9086 58.7957C69.9846 58.9037 70.0583 59.0185 70.1274 59.1403C70.1274 59.1403 71.233 61.015 71.3183 61.0288C71.4035 61.0426 72.9214 60.9806 72.9214 60.9806L74.0293 59.4413L73.8727 59.6595C73.3383 59.2621 74.0155 58.1225 74.3541 56.7946C75.2133 53.4173 74.9346 48.6846 74.3219 46.757C74.2804 46.626 74.1169 45.521 74.0823 45.4245C73.5664 43.8783 74.5269 42.0794 73.1494 40.1334C73.1494 40.1334 68.3285 30.916 65.5138 28.568C65.5138 28.568 64.8711 23.5228 65.4516 21.2391C66.0044 19.068 65.5714 17.0371 65.8017 16.7155C65.8017 16.7155 71.3114 17.917 72.4032 17.345C73.4949 16.7729 74.3541 14.6546 74.3541 14.6546C74.3541 14.6546 73.8382 11.1625 71.081 11.6197C71.081 11.6197 65.3687 8.78463 62.8442 9.58644C62.8442 9.58644 60.5776 8.24013 58.6543 9.04195L58.2812 8.34122C58.2812 8.34122 58.2835 8.33433 58.2835 8.32284C58.6106 8.14364 58.9906 7.89322 58.9906 7.69794C58.9906 7.5463 58.8432 6.54461 58.7442 5.39129C58.9192 4.15755 59.0805 2.82043 59.0989 1.98646C59.0989 1.98646 59.5734 1.47183 59.7438 0.697584C59.7438 0.697584 55.911 -0.503986 53.6307 1.0422C51.348 2.58839 52.813 6.15174 52.813 6.15174C52.813 6.15174 51.629 6.36541 52.35 7.35332C53.071 8.34122 54.7063 9.63009 53.8887 10.3584C53.071 11.089 48.5494 12.4192 48.0335 14.6523C48.0335 14.6523 45.5804 18.9899 45.8384 21.524C45.8407 21.5217 45.3685 22.0364 46.3152 22.852Z" fill="#001D54"/>
<path d="M111.328 25.5446C111.328 26.1787 111.719 26.1879 111.966 26.1327C111.973 28.614 112.026 31.2515 112.026 31.2515C112.026 31.2515 112.403 40.3655 111.874 41.3465C111.344 42.3252 111.95 43.7565 111.95 43.7565C111.95 43.7565 111.514 54.6786 111.742 56.4867C111.745 56.5005 111.745 56.5166 111.745 56.5327C112.392 56.5304 112.841 56.5212 112.841 56.5212L114.285 55.1588C114.258 54.2444 114.306 53.3783 114.573 52.7028C115.536 50.2744 115.762 45.6979 114.969 42.702C114.177 39.7084 117.745 31.8258 117.745 31.8258C117.745 31.8258 123.013 41.2339 122.759 43.9449C122.589 45.7599 123.877 49.0131 124.95 51.6804L127.173 53.0038H128.594C128.467 44.5445 125.242 41.7968 125.242 41.7968C125.922 37.8038 124.411 29.5559 124.411 29.5559C125.431 28.8414 128.792 21.3448 128.792 21.3448C128.792 21.3448 126.413 17.3909 126.187 15.3002C125.961 13.2095 123.771 11.8173 123.771 11.8173L122.601 9.9724L123.582 9.78401C122.637 9.10626 122.789 6.69623 122.789 6.69623L123.771 6.73299C122.034 5.71521 123.204 3.22936 121.921 1.68547C120.638 0.141581 117.616 0.856092 116.626 2.28741C115.635 3.71872 116.52 4.69744 116.626 4.96165C116.732 5.22586 116.748 6.54459 116.632 7.82428C116.556 8.68582 117.042 9.18897 117.372 9.42561C117.372 9.42561 117.37 9.4302 117.01 10.8087C116.649 12.1917 114.497 13.1659 113.62 14.0986C112.742 15.0314 113.781 18.1835 113.781 18.1835C113.781 18.1835 112.346 20.775 112.093 21.9261C111.609 23.1529 111.068 22.76 111.326 23.4654C111.607 24.212 111.328 24.6187 111.328 25.5446ZM122.713 16.7108C122.713 16.7108 126.728 20.1272 126.339 21.6825C126.263 21.9835 125.282 25.9765 123.204 26.4291C123.204 26.4291 121.983 24.6141 121.023 22.5487C120.339 21.076 123.054 18.4041 122.713 16.7108Z" fill="#001D54"/>
<path d="M71.1547 61.3803C73.2554 61.3803 75.0889 62.5176 76.0724 64.2085C75.515 62.0167 73.5249 60.397 71.1547 60.397C68.7846 60.397 66.7944 62.019 66.237 64.2085C67.2206 62.5176 69.054 61.3803 71.1547 61.3803Z" fill="#3CA3FF"/>
<path d="M76.8694 58.906C78.5831 58.906 80.078 59.8341 80.8796 61.2126C80.4235 59.4252 78.8019 58.1041 76.8694 58.1041C74.9369 58.1041 73.313 59.4252 72.8592 61.2126C73.6608 59.8318 75.1557 58.906 76.8694 58.906Z" fill="#3CA3FF"/>
<path d="M80.5502 56.8222C82.1234 56.8222 83.4939 57.6745 84.231 58.9381C83.8141 57.2977 82.3238 56.0847 80.5502 56.0847C78.7766 56.0847 77.2863 57.2977 76.8694 58.9381C77.6065 57.6745 78.977 56.8222 80.5502 56.8222Z" fill="#3CA3FF"/>
<path d="M49.6481 58.0375C51.2213 58.0375 52.5919 58.8899 53.3289 60.1535C52.912 58.5131 51.4217 57.3 49.6481 57.3C47.8745 57.3 46.3843 58.5131 45.9674 60.1535C46.7021 58.8899 48.0749 58.0375 49.6481 58.0375Z" fill="#3CA3FF"/>
<path d="M51.6866 52.5604C53.2598 52.5604 54.6303 53.4127 55.3674 54.6763C54.9505 53.036 53.4602 51.8229 51.6866 51.8229C49.913 51.8229 48.4227 53.036 48.0058 54.6763C48.7406 53.4127 50.1134 52.5604 51.6866 52.5604Z" fill="#3CA3FF"/>
<path d="M36.7193 53.739C38.0161 53.739 39.1471 54.442 39.7552 55.485C39.4097 54.1318 38.182 53.1324 36.7193 53.1324C35.2567 53.1324 34.0267 54.1318 33.6835 55.485C34.2916 54.442 35.4248 53.739 36.7193 53.739Z" fill="#3CA3FF"/>
<path d="M35.0655 52.6936C35.7127 52.6936 36.2794 53.0451 36.5834 53.5667C36.4107 52.8912 35.798 52.3904 35.0655 52.3904C34.333 52.3904 33.7203 52.8912 33.5476 53.5667C33.8516 53.0451 34.4182 52.6936 35.0655 52.6936Z" fill="#3CA3FF"/>
<path d="M71.1547 62.5888C72.212 62.5888 73.1356 63.1608 73.6308 64.0132C73.3498 62.9104 72.3479 62.0925 71.1547 62.0925C69.9616 62.0925 68.9596 62.9081 68.6786 64.0132C69.1738 63.1631 70.0975 62.5888 71.1547 62.5888Z" fill="#3CA3FF"/>
<path d="M65.3042 59.2023C66.928 59.2023 68.3446 60.08 69.1047 61.3872C68.674 59.694 67.1353 58.4419 65.3042 58.4419C63.473 58.4419 61.9343 59.694 61.5036 61.3872C62.2637 60.08 63.6803 59.2023 65.3042 59.2023Z" fill="#3CA3FF"/>
<path d="M77.3922 60.5303C78.0533 60.5303 78.6315 60.8887 78.9424 61.4217C78.7673 60.7301 78.1385 60.2201 77.3922 60.2201C76.646 60.2201 76.0171 60.7301 75.8421 61.4217C76.1507 60.8887 76.7289 60.5303 77.3922 60.5303Z" fill="#3CA3FF"/>
<path d="M82.2685 61.7571C83.1069 61.7571 83.8394 62.212 84.2309 62.8852C84.0075 62.0098 83.2129 61.3642 82.2685 61.3642C81.3218 61.3642 80.5271 62.0121 80.306 62.8852C80.6976 62.2097 81.43 61.7571 82.2685 61.7571Z" fill="#3CA3FF"/>
<path d="M35.335 60.1558C36.3923 60.1558 37.3159 60.7278 37.8111 61.5802C37.5301 60.4774 36.5282 59.6595 35.335 59.6595C34.1419 59.6595 33.1399 60.4751 32.8589 61.5802C33.3518 60.7278 34.2755 60.1558 35.335 60.1558Z" fill="#3CA3FF"/>
<path d="M47.0269 51.5449C48.0842 51.5449 49.0078 52.117 49.503 52.9693C49.222 51.8666 48.2201 51.0487 47.0269 51.0487C45.8338 51.0487 44.8318 51.8643 44.5508 52.9693C45.046 52.117 45.9674 51.5449 47.0269 51.5449Z" fill="#3CA3FF"/>
<path d="M46.587 54.465C47.4576 54.465 48.2154 54.9359 48.6231 55.6367C48.3928 54.7292 47.5682 54.0583 46.587 54.0583C45.6057 54.0583 44.7811 54.7292 44.5508 55.6367C44.9562 54.9359 45.7163 54.465 46.587 54.465Z" fill="#3CA3FF"/>
<path d="M43.0352 52.4179C43.9058 52.4179 44.6637 52.8889 45.0714 53.5896C44.841 52.6821 44.0164 52.0113 43.0352 52.0113C42.0539 52.0113 41.2293 52.6821 40.999 53.5896C41.4044 52.8889 42.1645 52.4179 43.0352 52.4179Z" fill="#3CA3FF"/>
<path d="M33.5476 55.5356C34.1948 55.5356 34.7615 55.8871 35.0655 56.4086C34.8928 55.7332 34.2801 55.2323 33.5476 55.2323C32.8151 55.2323 32.2024 55.7332 32.0297 56.4086C32.3337 55.8871 32.9003 55.5356 33.5476 55.5356Z" fill="#3CA3FF"/>
<path d="M86.4491 59.3402C87.7551 59.3402 88.8953 60.0478 89.508 61.0977C89.1602 59.7353 87.9233 58.7268 86.4491 58.7268C84.9749 58.7268 83.738 59.7353 83.3902 61.0977C84.0029 60.0478 85.1431 59.3402 86.4491 59.3402Z" fill="#3CA3FF"/>
<path d="M90.2105 61.4745C91.5165 61.4745 92.6567 62.1821 93.2694 63.2321C92.9216 61.8697 91.6847 60.8611 90.2105 60.8611C88.7364 60.8611 87.4995 61.8697 87.1516 63.2321C87.7643 62.1821 88.9045 61.4745 90.2105 61.4745Z" fill="#3CA3FF"/>
<path d="M93.426 60.1535C94.4879 60.1535 95.4138 60.7278 95.9091 61.5825C95.628 60.4751 94.6215 59.6572 93.426 59.6572C92.2306 59.6572 91.224 60.4751 90.943 61.5825C91.4405 60.7278 92.3665 60.1535 93.426 60.1535Z" fill="#3CA3FF"/>
<path d="M96.243 59.1541C97.0722 59.1541 97.7955 59.6021 98.1848 60.2706C97.9636 59.4045 97.1782 58.7658 96.243 58.7658C95.3078 58.7658 94.5201 59.4068 94.3013 60.2706C94.6882 59.6021 95.4138 59.1541 96.243 59.1541Z" fill="#3CA3FF"/>
<path d="M97.0377 61.2172C97.8669 61.2172 98.5902 61.6652 98.9794 62.3338C98.7583 61.4676 97.9729 60.8289 97.0377 60.8289C96.1025 60.8289 95.3148 61.4699 95.0959 62.3338C95.4852 61.6675 96.2085 61.2172 97.0377 61.2172Z" fill="#3CA3FF"/>
<path d="M100.018 62.2166C100.847 62.2166 101.571 62.6646 101.96 63.3332C101.739 62.467 100.953 61.8283 100.018 61.8283C99.0831 61.8283 98.2953 62.4693 98.0765 63.3332C98.4658 62.6669 99.189 62.2166 100.018 62.2166Z" fill="#3CA3FF"/>
<path d="M99.3595 60.0754C100.06 60.0754 100.672 60.4544 101.002 61.0196C100.815 60.289 100.152 59.7468 99.3595 59.7468C98.5671 59.7468 97.9038 60.289 97.7172 61.0196C98.0443 60.4544 98.657 60.0754 99.3595 60.0754Z" fill="#3CA3FF"/>
<path d="M116.423 56.45C117.252 56.45 117.975 56.898 118.365 57.5665C118.143 56.7004 117.358 56.0617 116.423 56.0617C115.488 56.0617 114.7 56.7027 114.481 57.5665C114.868 56.9003 115.594 56.45 116.423 56.45Z" fill="#3CA3FF"/>
<path d="M93.426 60.9966C93.912 60.9966 94.3358 61.2609 94.5639 61.6514C94.4349 61.1437 93.9742 60.7692 93.426 60.7692C92.8778 60.7692 92.4171 61.1437 92.2881 61.6514C92.5162 61.2609 92.94 60.9966 93.426 60.9966Z" fill="#3CA3FF"/>
<path d="M86.9904 60.5027C87.4764 60.5027 87.9002 60.7669 88.1283 61.1575C87.9993 60.6497 87.5386 60.2752 86.9904 60.2752C86.4422 60.2752 85.9815 60.6497 85.8525 61.1575C86.0806 60.7669 86.5044 60.5027 86.9904 60.5027Z" fill="#3CA3FF"/>
<path d="M90.4178 62.3108C91.0351 62.3108 91.5741 62.6462 91.8643 63.1425C91.7008 62.4992 91.1157 62.0213 90.4178 62.0213C89.7199 62.0213 89.1348 62.4969 88.9713 63.1425C89.2592 62.6439 89.7982 62.3108 90.4178 62.3108Z" fill="#3CA3FF"/>
<path d="M96.3559 59.7307C96.8419 59.7307 97.2657 59.9949 97.4938 60.3855C97.3648 59.8778 96.9041 59.5033 96.3559 59.5033C95.8077 59.5033 95.347 59.8778 95.218 60.3855C95.4461 59.9949 95.8699 59.7307 96.3559 59.7307Z" fill="#3CA3FF"/>
<path d="M96.9386 61.911C97.4247 61.911 97.8485 62.1752 98.0765 62.5658C97.9475 62.0581 97.4869 61.6836 96.9386 61.6836C96.3904 61.6836 95.9298 62.0581 95.8008 62.5658C96.0265 62.1752 96.4526 61.911 96.9386 61.911Z" fill="#3CA3FF"/>
<path d="M103.616 61.0541C104.321 61.0541 104.936 61.4446 105.265 62.0236C105.079 61.2723 104.411 60.7186 103.616 60.7186C102.821 60.7186 102.153 61.2746 101.967 62.0236C102.299 61.4446 102.914 61.0541 103.616 61.0541Z" fill="#3CA3FF"/>
<path d="M138.441 57.7388C139.27 57.7388 139.993 58.1868 140.38 58.8531C140.159 57.9893 139.376 57.3506 138.441 57.3506C137.506 57.3506 136.72 57.9893 136.501 58.8531C136.888 58.1868 137.612 57.7388 138.441 57.7388Z" fill="#3CA3FF"/>
<path d="M108.306 61.9501C109.743 61.9501 110.996 62.7266 111.669 63.8845C111.286 62.3866 109.925 61.2792 108.306 61.2792C106.684 61.2792 105.325 62.3866 104.943 63.8845C105.615 62.7289 106.868 61.9501 108.306 61.9501Z" fill="#3CA3FF"/>
<path d="M138.102 55.8182C140.125 55.8182 141.889 56.9118 142.836 58.5384C142.299 56.4293 140.383 54.8693 138.102 54.8693C135.822 54.8693 133.905 56.4293 133.369 58.5384C134.318 56.9118 136.082 55.8182 138.102 55.8182Z" fill="#3CA3FF"/>
<path d="M110.828 56.9991C113.343 56.9991 115.536 58.3592 116.715 60.3832C116.047 57.7618 113.666 55.8205 110.828 55.8205C107.99 55.8205 105.609 57.7595 104.941 60.3832C106.12 58.3615 108.315 56.9991 110.828 56.9991Z" fill="#3CA3FF"/>
<path d="M118.729 60.1075C121.244 60.1075 123.437 61.4676 124.616 63.4917C123.948 60.8703 121.566 58.9289 118.729 58.9289C115.891 58.9289 113.509 60.868 112.841 63.4917C114.02 61.4676 116.216 60.1075 118.729 60.1075Z" fill="#3CA3FF"/>
<path d="M128.656 57.8261C131.171 57.8261 133.364 59.1862 134.543 61.2103C133.875 58.5889 131.494 56.6476 128.656 56.6476C125.818 56.6476 123.437 58.5866 122.769 61.2103C123.948 59.1885 126.141 57.8261 128.656 57.8261Z" fill="#3CA3FF"/>
<path d="M136.741 60.7324C138.487 60.7324 140.012 61.6767 140.829 63.0827C140.366 61.2608 138.71 59.9145 136.741 59.9145C134.772 59.9145 133.115 61.2608 132.652 63.0827C133.472 61.6767 134.995 60.7324 136.741 60.7324Z" fill="#3CA3FF"/>
<path d="M129.142 53.4311C131.657 53.4311 133.85 54.7912 135.029 56.8153C134.362 54.1939 131.98 52.2525 129.142 52.2525C126.304 52.2525 123.923 54.1916 123.255 56.8153C124.434 54.7912 126.627 53.4311 129.142 53.4311Z" fill="#3CA3FF"/>
<path d="M116.835 54.5201C118.54 54.5201 120.028 55.4437 120.827 56.8153C120.373 55.037 118.758 53.7206 116.835 53.7206C114.912 53.7206 113.295 55.037 112.843 56.8153C113.64 55.4437 115.131 54.5201 116.835 54.5201Z" fill="#3CA3FF"/>
<path d="M134.11 50.7063C135.815 50.7063 137.303 51.6299 138.102 53.0015C137.648 51.2233 136.034 49.9068 134.11 49.9068C132.187 49.9068 130.57 51.2233 130.119 53.0015C130.918 51.6299 132.406 50.7063 134.11 50.7063Z" fill="#3CA3FF"/>
<path d="M124.019 51.7586C125.291 51.7586 126.399 52.4478 126.995 53.4702C126.657 52.1445 125.454 51.1635 124.019 51.1635C122.584 51.1635 121.382 52.1445 121.043 53.4702C121.64 52.4455 122.748 51.7586 124.019 51.7586Z" fill="#3CA3FF"/>
<path d="M122.073 56.7142C123.381 56.7142 124.524 57.4218 125.137 58.474C124.789 57.1093 123.549 56.1008 122.073 56.1008C120.597 56.1008 119.357 57.1093 119.01 58.474C119.625 57.4218 120.765 56.7142 122.073 56.7142Z" fill="#3CA3FF"/>
<path d="M64.9886 57.3184C67.6214 57.3184 69.9201 58.7451 71.1547 60.8634C70.4545 58.1179 67.96 56.0847 64.9886 56.0847C62.0173 56.0847 59.5227 58.1156 58.8225 60.8634C60.0594 58.7451 62.3558 57.3184 64.9886 57.3184Z" fill="#3CA3FF"/>
<path d="M57.8505 61.1483C60.4832 61.1483 62.782 62.575 64.0166 64.6933C63.3164 61.9478 60.8218 59.9145 57.8505 59.9145C54.8791 59.9145 52.3846 61.9455 51.6843 64.6933C52.9189 62.5727 55.2177 61.1483 57.8505 61.1483Z" fill="#3CA3FF"/>
<path d="M44.56 60.6635C47.1928 60.6635 49.4915 62.0902 50.7261 64.2085C50.0259 61.463 47.5313 59.4298 44.56 59.4298C41.5886 59.4298 39.0941 61.4607 38.3939 64.2085C39.6285 62.0902 41.9272 60.6635 44.56 60.6635Z" fill="#3CA3FF"/>
<path d="M41.8466 55.083C44.0348 55.083 45.9443 56.2685 46.9693 58.0283C46.3889 55.7469 44.3158 54.0583 41.8466 54.0583C39.3774 54.0583 37.3044 55.7469 36.7239 58.0283C37.7489 56.2685 39.6584 55.083 41.8466 55.083Z" fill="#3CA3FF"/>
<path d="M35.335 58.4717C37.5232 58.4717 39.4327 59.6572 40.4577 61.4171C39.8772 59.1357 37.8042 57.4471 35.335 57.4471C32.8658 57.4471 30.7927 59.1357 30.2123 61.4171C31.2373 59.6549 33.1468 58.4717 35.335 58.4717Z" fill="#3CA3FF"/>
<path d="M55.3398 54.6648C57.9725 54.6648 60.2713 56.0916 61.5059 58.2098C60.8057 55.4644 58.3111 53.4311 55.3398 53.4311C52.3684 53.4311 49.8739 55.4621 49.1736 58.2098C50.4083 56.0916 52.7047 54.6648 55.3398 54.6648Z" fill="#3CA3FF"/>
<path d="M83.1369 31.3572C83.1369 31.2515 81.817 31.1642 80.0826 31.1481C80.0619 31.0861 80.0342 31.0286 79.9974 30.9781C80.6331 30.321 81.0684 29.8179 81.027 29.7765C80.9855 29.7351 80.4811 30.1694 79.8223 30.8035C79.7693 30.7667 79.7117 30.7391 79.6519 30.7185C79.6334 28.9885 79.5459 27.672 79.4422 27.672C79.3386 27.672 79.2488 28.9885 79.2326 30.7185C79.1704 30.7391 79.1129 30.7667 79.0622 30.8035C78.4034 30.1694 77.899 29.7351 77.8575 29.7765C77.8161 29.8179 78.2514 30.321 78.8871 30.9781C78.8503 31.0309 78.8226 31.0883 78.8019 31.1481C77.0675 31.1665 75.7476 31.2538 75.7476 31.3572C75.7476 31.4628 77.0675 31.5501 78.8019 31.5662C78.8226 31.6283 78.8503 31.6857 78.8871 31.7362C78.2514 32.3933 77.8161 32.8964 77.8575 32.9378C77.899 32.9792 78.4034 32.5449 79.0622 31.9108C79.1152 31.9476 79.1728 31.9752 79.2326 31.9958C79.2511 33.7258 79.3386 35.0423 79.4422 35.0423C79.5459 35.0423 79.6357 33.7258 79.6519 31.9958C79.714 31.9752 79.7716 31.9476 79.8223 31.9108C80.4811 32.5449 80.9855 32.9792 81.027 32.9378C81.0684 32.8964 80.6331 32.3933 79.9974 31.7362C80.0342 31.6834 80.0619 31.626 80.0826 31.5662C81.817 31.5501 83.1369 31.4628 83.1369 31.3572Z" fill="#3CA3FF"/>
<path d="M87.5547 50.495C87.5547 50.4467 86.9466 50.4054 86.1474 50.3985C86.1381 50.3709 86.1243 50.3433 86.1082 50.3204C86.4007 50.0171 86.6011 49.7851 86.5827 49.7667C86.5643 49.7483 86.3316 49.9482 86.0276 50.24C86.0045 50.2239 85.9769 50.2101 85.9493 50.2009C85.94 49.4037 85.9009 48.7971 85.8525 48.7971C85.8041 48.7971 85.7627 49.4037 85.7558 50.2009C85.7281 50.2101 85.7005 50.2239 85.6775 50.24C85.3734 49.9482 85.1408 49.7483 85.1224 49.7667C85.1039 49.7851 85.3043 50.0171 85.5968 50.3204C85.5807 50.3433 85.5669 50.3709 85.5577 50.3985C84.7584 50.4077 84.1503 50.4467 84.1503 50.495C84.1503 50.5432 84.7584 50.5846 85.5577 50.5915C85.5669 50.619 85.5807 50.6466 85.5968 50.6696C85.3043 50.9728 85.1039 51.2049 85.1224 51.2233C85.1408 51.2416 85.3734 51.0418 85.6775 50.75C85.7005 50.7661 85.7281 50.7799 85.7558 50.789C85.765 51.5863 85.8041 52.1928 85.8525 52.1928C85.9009 52.1928 85.9424 51.5863 85.9493 50.789C85.9769 50.7799 86.0045 50.7661 86.0276 50.75C86.3316 51.0418 86.5643 51.2416 86.5827 51.2233C86.6011 51.2049 86.4007 50.9728 86.1082 50.6696C86.1243 50.6466 86.1381 50.619 86.1474 50.5915C86.9466 50.5846 87.5547 50.5432 87.5547 50.495Z" fill="#3CA3FF"/>
<path d="M65.9076 52.7993C65.9076 52.7511 65.2996 52.7097 64.5003 52.7028C64.4911 52.6753 64.4772 52.6477 64.4611 52.6247C64.7536 52.3215 64.954 52.0894 64.9356 52.071C64.9172 52.0526 64.6846 52.2525 64.3805 52.5443C64.3575 52.5282 64.3298 52.5144 64.3022 52.5052C64.293 51.708 64.2538 51.1015 64.2054 51.1015C64.1571 51.1015 64.1156 51.708 64.1087 52.5052C64.0811 52.5144 64.0534 52.5282 64.0304 52.5443C63.7263 52.2525 63.4937 52.0526 63.4753 52.071C63.4568 52.0894 63.6572 52.3215 63.9498 52.6247C63.9336 52.6477 63.9198 52.6753 63.9106 52.7028C63.1113 52.712 62.5033 52.7511 62.5033 52.7993C62.5033 52.8476 63.1113 52.8889 63.9106 52.8958C63.9198 52.9234 63.9336 52.951 63.9498 52.9739C63.6572 53.2772 63.4568 53.5092 63.4753 53.5276C63.4937 53.546 63.7263 53.3461 64.0304 53.0543C64.0534 53.0704 64.0811 53.0842 64.1087 53.0934C64.1179 53.8906 64.1571 54.4971 64.2054 54.4971C64.2538 54.4971 64.2953 53.8906 64.3022 53.0934C64.3298 53.0842 64.3575 53.0704 64.3805 53.0543C64.6846 53.3461 64.9172 53.546 64.9356 53.5276C64.954 53.5092 64.7536 53.2772 64.4611 52.9739C64.4772 52.951 64.4911 52.9234 64.5003 52.8958C65.2996 52.8866 65.9076 52.8476 65.9076 52.7993Z" fill="#3CA3FF"/>
<path d="M47.6672 38.8583C47.6672 38.8101 47.0592 38.7687 46.2599 38.7619C46.2507 38.7343 46.2369 38.7067 46.2207 38.6837C46.5133 38.3805 46.7136 38.1484 46.6952 38.1301C46.6768 38.1117 46.4442 38.3115 46.1401 38.6033C46.1171 38.5872 46.0894 38.5735 46.0618 38.5643C46.0526 37.767 46.0134 37.1605 45.9651 37.1605C45.9167 37.1605 45.8752 37.767 45.8683 38.5643C45.8407 38.5735 45.813 38.5872 45.79 38.6033C45.486 38.3115 45.2533 38.1117 45.2349 38.1301C45.2165 38.1484 45.4169 38.3805 45.7094 38.6837C45.6933 38.7067 45.6794 38.7343 45.6702 38.7619C44.871 38.771 44.2629 38.8101 44.2629 38.8583C44.2629 38.9066 44.871 38.9479 45.6702 38.9548C45.6794 38.9824 45.6933 39.01 45.7094 39.033C45.4169 39.3362 45.2165 39.5683 45.2349 39.5866C45.2533 39.605 45.486 39.4051 45.79 39.1134C45.813 39.1294 45.8407 39.1432 45.8683 39.1524C45.8775 39.9496 45.9167 40.5562 45.9651 40.5562C46.0134 40.5562 46.0549 39.9496 46.0618 39.1524C46.0894 39.1432 46.1171 39.1294 46.1401 39.1134C46.4442 39.4051 46.6768 39.605 46.6952 39.5866C46.7136 39.5683 46.5133 39.3362 46.2207 39.033C46.2369 39.01 46.2507 38.9824 46.2599 38.9548C47.0592 38.9479 47.6672 38.9066 47.6672 38.8583Z" fill="#3CA3FF"/>
<path d="M44.2629 47.6415C44.2629 47.5359 42.9407 47.4485 41.1994 47.4302C41.1787 47.3681 41.151 47.3107 41.1142 47.2579C41.7522 46.5985 42.1898 46.093 42.1484 46.0517C42.1069 46.0103 41.6002 46.4469 40.9391 47.0833C40.8861 47.0465 40.8285 47.0189 40.7663 46.9982C40.7479 45.2637 40.6604 43.9426 40.5544 43.9426C40.4485 43.9426 40.361 45.2614 40.3425 46.9982C40.2803 47.0189 40.2228 47.0465 40.1698 47.0833C39.5087 46.4469 39.002 46.0103 38.9605 46.0517C38.919 46.093 39.3567 46.5985 39.9947 47.2579C39.9579 47.3107 39.9302 47.3681 39.9095 47.4302C38.1704 47.4485 36.846 47.5359 36.846 47.6415C36.846 47.7472 38.1681 47.8345 39.9095 47.8529C39.9302 47.9149 39.9579 47.9724 39.9947 48.0252C39.3567 48.6846 38.919 49.19 38.9605 49.2314C39.002 49.2727 39.5087 48.8362 40.1698 48.1998C40.2228 48.2366 40.2803 48.2641 40.3425 48.2848C40.361 50.0194 40.4485 51.3404 40.5544 51.3404C40.6604 51.3404 40.7479 50.0217 40.7663 48.2848C40.8285 48.2641 40.8861 48.2366 40.9391 48.1998C41.6002 48.8362 42.1069 49.2727 42.1484 49.2314C42.1898 49.19 41.7522 48.6846 41.1142 48.0252C41.151 47.9724 41.1787 47.9149 41.1994 47.8529C42.9407 47.8345 44.2629 47.7472 44.2629 47.6415Z" fill="#3CA3FF"/>
<path d="M101.965 34.4932C101.965 34.4174 101.009 34.353 99.7534 34.3416C99.7396 34.2979 99.7188 34.2566 99.6912 34.2175C100.152 33.7419 100.467 33.3766 100.437 33.3468C100.408 33.3169 100.041 33.6316 99.5645 34.0911C99.5276 34.0659 99.4839 34.0452 99.4401 34.0291C99.4263 32.777 99.3641 31.8235 99.2881 31.8235C99.2121 31.8235 99.1476 32.777 99.1361 34.0291C99.0923 34.0429 99.0508 34.0636 99.0117 34.0911C98.5349 33.6316 98.1687 33.3169 98.1387 33.3468C98.1088 33.3766 98.4243 33.7419 98.885 34.2175C98.8597 34.2543 98.8389 34.2979 98.8228 34.3416C97.5675 34.3553 96.6116 34.4174 96.6116 34.4932C96.6116 34.569 97.5675 34.6333 98.8228 34.6448C98.8366 34.6885 98.8574 34.7298 98.885 34.7689C98.4243 35.2445 98.1088 35.6097 98.1387 35.6396C98.1687 35.6695 98.5349 35.3547 99.0117 34.8952C99.0485 34.9205 99.0923 34.9412 99.1361 34.9573C99.1499 36.2094 99.2121 37.1628 99.2881 37.1628C99.3641 37.1628 99.4286 36.2094 99.4401 34.9573C99.4839 34.9435 99.5253 34.9228 99.5645 34.8952C100.041 35.3547 100.408 35.6695 100.437 35.6396C100.467 35.6097 100.152 35.2445 99.6912 34.7689C99.7165 34.7321 99.7372 34.6885 99.7534 34.6448C101.009 34.631 101.965 34.569 101.965 34.4932Z" fill="#3CA3FF"/>
<path d="M93.654 40.3816C93.654 40.2529 92.0371 40.1449 89.9111 40.1242C89.8857 40.0484 89.8512 39.9795 89.8074 39.9152C90.586 39.1088 91.1203 38.4908 91.0697 38.4402C91.019 38.3897 90.3994 38.9227 89.5909 39.6992C89.5264 39.6556 89.455 39.6211 89.3813 39.5958C89.3606 37.4753 89.2523 35.8625 89.1233 35.8625C88.9943 35.8625 88.8861 37.4753 88.8653 39.5958C88.7893 39.6211 88.7202 39.6556 88.6557 39.6992C87.8473 38.9227 87.2276 38.3897 87.177 38.4402C87.1263 38.4908 87.6607 39.1088 88.4392 39.9152C88.3955 39.9795 88.3609 40.0507 88.3356 40.1242C86.2096 40.1449 84.5926 40.2529 84.5926 40.3816C84.5926 40.5102 86.2096 40.6182 88.3356 40.6389C88.3609 40.7147 88.3955 40.7836 88.4392 40.8479C87.6607 41.6544 87.1263 42.2724 87.177 42.3229C87.2276 42.3735 87.8473 41.8404 88.6557 41.0639C88.7202 41.1076 88.7916 41.142 88.8653 41.1673C88.8861 43.2878 88.9943 44.9007 89.1233 44.9007C89.2523 44.9007 89.3606 43.2878 89.3813 41.1673C89.4573 41.142 89.5264 41.1076 89.5909 41.0639C90.3994 41.8404 91.019 42.3735 91.0697 42.3229C91.1203 42.2724 90.586 41.6544 89.8074 40.8479C89.8512 40.7836 89.8857 40.7124 89.9111 40.6389C92.0371 40.6159 93.654 40.5102 93.654 40.3816Z" fill="#3CA3FF"/>
<path d="M131.333 37.7119C131.333 37.6361 130.377 37.5718 129.121 37.5603C129.108 37.5166 129.087 37.4753 129.059 37.4362C129.52 36.9606 129.835 36.5953 129.805 36.5655C129.776 36.5356 129.409 36.8504 128.932 37.3099C128.896 37.2846 128.852 37.2639 128.808 37.2478C128.794 35.9957 128.732 35.0423 128.656 35.0423C128.58 35.0423 128.516 35.9957 128.504 37.2478C128.46 37.2616 128.419 37.2823 128.38 37.3099C127.903 36.8504 127.537 36.5356 127.507 36.5655C127.477 36.5953 127.792 36.9606 128.253 37.4362C128.228 37.473 128.207 37.5166 128.191 37.5603C126.935 37.5741 125.98 37.6361 125.98 37.7119C125.98 37.7877 126.935 37.8521 128.191 37.8635C128.205 37.9072 128.225 37.9485 128.253 37.9876C127.792 38.4632 127.477 38.8285 127.507 38.8583C127.537 38.8882 127.903 38.5735 128.38 38.114C128.417 38.1392 128.46 38.1599 128.504 38.176C128.518 39.4281 128.58 40.3816 128.656 40.3816C128.732 40.3816 128.797 39.4281 128.808 38.176C128.852 38.1622 128.893 38.1415 128.932 38.114C129.409 38.5735 129.776 38.8882 129.805 38.8583C129.835 38.8285 129.52 38.4632 129.059 37.9876C129.084 37.9508 129.105 37.9072 129.121 37.8635C130.377 37.8521 131.333 37.7877 131.333 37.7119Z" fill="#3CA3FF"/>
<path d="M120.714 47.6415C120.714 47.5933 120.106 47.5519 119.307 47.545C119.297 47.5175 119.284 47.4899 119.268 47.4669C119.56 47.1636 119.76 46.9316 119.742 46.9132C119.724 46.8948 119.491 47.0947 119.187 47.3865C119.164 47.3704 119.136 47.3566 119.109 47.3474C119.099 46.5502 119.06 45.9437 119.012 45.9437C118.963 45.9437 118.922 46.5502 118.915 47.3474C118.887 47.3566 118.86 47.3704 118.837 47.3865C118.533 47.0947 118.3 46.8948 118.282 46.9132C118.263 46.9316 118.464 47.1636 118.756 47.4669C118.74 47.4899 118.726 47.5175 118.717 47.545C117.918 47.5542 117.31 47.5933 117.31 47.6415C117.31 47.6898 117.918 47.7311 118.717 47.738C118.726 47.7656 118.74 47.7931 118.756 47.8161C118.464 48.1194 118.263 48.3514 118.282 48.3698C118.3 48.3882 118.533 48.1883 118.837 47.8965C118.86 47.9126 118.887 47.9264 118.915 47.9356C118.924 48.7328 118.963 49.3393 119.012 49.3393C119.06 49.3393 119.102 48.7328 119.109 47.9356C119.136 47.9264 119.164 47.9126 119.187 47.8965C119.491 48.1883 119.724 48.3882 119.742 48.3698C119.76 48.3514 119.56 48.1194 119.268 47.8161C119.284 47.7931 119.297 47.7656 119.307 47.738C120.106 47.7311 120.714 47.6898 120.714 47.6415Z" fill="#3CA3FF"/>
<path d="M142.532 51.4553C142.532 51.4071 141.923 51.3657 141.124 51.3588C141.115 51.3312 141.101 51.3037 141.085 51.2807C141.378 50.9774 141.578 50.7454 141.56 50.727C141.541 50.7086 141.308 50.9085 141.004 51.2003C140.981 51.1842 140.954 51.1704 140.926 51.1612C140.917 50.364 140.878 49.7575 140.829 49.7575C140.781 49.7575 140.74 50.364 140.733 51.1612C140.705 51.1704 140.677 51.1842 140.654 51.2003C140.35 50.9085 140.118 50.7086 140.099 50.727C140.081 50.7454 140.281 50.9774 140.574 51.2807C140.558 51.3037 140.544 51.3312 140.535 51.3588C139.735 51.368 139.127 51.4071 139.127 51.4553C139.127 51.5035 139.735 51.5449 140.535 51.5518C140.544 51.5794 140.558 51.6069 140.574 51.6299C140.281 51.9332 140.081 52.1652 140.099 52.1836C140.118 52.202 140.35 52.0021 140.654 51.7103C140.677 51.7264 140.705 51.7402 140.733 51.7494C140.742 52.5466 140.781 53.1531 140.829 53.1531C140.878 53.1531 140.919 52.5466 140.926 51.7494C140.954 51.7402 140.981 51.7264 141.004 51.7103C141.308 52.0021 141.541 52.202 141.56 52.1836C141.578 52.1652 141.378 51.9332 141.085 51.6299C141.101 51.6069 141.115 51.5794 141.124 51.5518C141.926 51.5449 142.532 51.5035 142.532 51.4553Z" fill="#3CA3FF"/>
<path d="M136.732 19.8722C136.732 19.8239 136.124 19.7826 135.324 19.7757C135.315 19.7481 135.301 19.7205 135.285 19.6976C135.578 19.3943 135.778 19.1623 135.76 19.1439C135.741 19.1255 135.509 19.3254 135.205 19.6171C135.182 19.6011 135.154 19.5873 135.126 19.5781C135.117 18.7809 135.078 18.1743 135.029 18.1743C134.981 18.1743 134.94 18.7809 134.933 19.5781C134.905 19.5873 134.877 19.6011 134.854 19.6171C134.55 19.3254 134.318 19.1255 134.299 19.1439C134.281 19.1623 134.481 19.3943 134.774 19.6976C134.758 19.7205 134.744 19.7481 134.735 19.7757C133.935 19.7849 133.327 19.8239 133.327 19.8722C133.327 19.9204 133.935 19.9618 134.735 19.9687C134.744 19.9962 134.758 20.0238 134.774 20.0468C134.481 20.35 134.281 20.5821 134.299 20.6005C134.318 20.6188 134.55 20.419 134.854 20.1272C134.877 20.1433 134.905 20.1571 134.933 20.1662C134.942 20.9635 134.981 21.57 135.029 21.57C135.078 21.57 135.119 20.9635 135.126 20.1662C135.154 20.1571 135.182 20.1433 135.205 20.1272C135.509 20.419 135.741 20.6188 135.76 20.6005C135.778 20.5821 135.578 20.35 135.285 20.0468C135.301 20.0238 135.315 19.9962 135.324 19.9687C136.124 19.9595 136.732 19.9204 136.732 19.8722Z" fill="#3CA3FF"/>
<path d="M40.0984 26.4291C40.0984 26.3809 39.4903 26.3395 38.691 26.3326C38.6818 26.3051 38.668 26.2775 38.6518 26.2545C38.9444 25.9512 39.1448 25.7192 39.1263 25.7008C39.1079 25.6824 38.8753 25.8823 38.5712 26.1741C38.5482 26.158 38.5206 26.1442 38.4929 26.135C38.4837 25.3378 38.4445 24.7313 38.3962 24.7313C38.3478 24.7313 38.3063 25.3378 38.2994 26.135C38.2718 26.1442 38.2442 26.158 38.2211 26.1741C37.9171 25.8823 37.6844 25.6824 37.666 25.7008C37.6476 25.7192 37.848 25.9512 38.1405 26.2545C38.1244 26.2775 38.1106 26.3051 38.1013 26.3326C37.3021 26.3418 36.694 26.3809 36.694 26.4291C36.694 26.4774 37.3021 26.5187 38.1013 26.5256C38.1106 26.5532 38.1244 26.5807 38.1405 26.6037C37.848 26.907 37.6476 27.139 37.666 27.1574C37.6844 27.1758 37.9171 26.9759 38.2211 26.6841C38.2442 26.7002 38.2718 26.714 38.2994 26.7232C38.3086 27.5204 38.3478 28.1269 38.3962 28.1269C38.4445 28.1269 38.486 27.5204 38.4929 26.7232C38.5206 26.714 38.5482 26.7002 38.5712 26.6841C38.8753 26.9759 39.1079 27.1758 39.1263 27.1574C39.1448 27.139 38.9444 26.907 38.6518 26.6037C38.668 26.5807 38.6818 26.5532 38.691 26.5256C39.4903 26.5164 40.0984 26.4774 40.0984 26.4291Z" fill="#3CA3FF"/>
</svg>
