<?xml version="1.0"?>
<svg xmlns="http://www.w3.org/2000/svg" width="150" height="40" viewBox="0 0 150 40" fill="none">
<path d="M53.4669 15.9329C52.0184 15.9329 50.8818 16.4711 50.057 17.5423V12H47.829V26.2934H50.057V20.6907C50.057 19.9011 50.3034 19.2674 50.7913 18.7896C51.2841 18.3118 51.9279 18.0704 52.7276 18.0704C53.492 18.0704 54.1006 18.3068 54.5583 18.7795C55.0159 19.2523 55.2473 19.8759 55.2473 20.6505V26.2883H57.4652V19.9262C57.4652 18.7242 57.0981 17.7586 56.3638 17.0293C55.6345 16.3001 54.6689 15.9329 53.4669 15.9329Z" fill="#3C34E5"/>
<path d="M43.368 17.5474C42.4627 16.4761 41.2808 15.938 39.8223 15.938C38.394 15.938 37.207 16.4208 36.2615 17.3864C35.316 18.3521 34.8432 19.5591 34.8432 21.0126C34.8432 22.451 35.316 23.653 36.2615 24.6186C37.207 25.5842 38.394 26.0671 39.8223 26.0671C41.2858 26.0671 42.4677 25.5339 43.368 24.4677V25.1769C43.368 26.1123 43.0562 26.8617 42.4375 27.4199C41.8189 27.9782 40.979 28.2598 39.9179 28.2598C39.2137 28.2598 38.575 28.1341 38.0067 27.8826C37.4334 27.6312 36.9606 27.2791 36.5884 26.8265L35.4367 28.3554C35.9749 28.974 36.6387 29.4518 37.4384 29.7938C38.2381 30.1308 39.1232 30.3018 40.0989 30.3018C41.7636 30.3018 43.0964 29.834 44.0972 28.9036C45.0981 27.9681 45.601 26.736 45.601 25.197V16.1794H44.8114C44.052 16.1794 43.368 16.8332 43.368 17.5474ZM42.4778 23.1852C41.8894 23.7686 41.145 24.0553 40.2548 24.0553C39.3596 24.0553 38.6102 23.7636 38.0117 23.1852C37.4132 22.6018 37.1165 21.8826 37.1165 21.0176C37.1165 20.1475 37.4132 19.4183 38.0117 18.8399C38.6102 18.2565 39.3546 17.9698 40.2548 17.9698C41.145 17.9698 41.8894 18.2615 42.4778 18.8399C43.0662 19.4233 43.363 20.1475 43.363 21.0176C43.368 21.8776 43.0712 22.6018 42.4778 23.1852Z" fill="#3C34E5"/>
<path d="M23.9899 15.943C22.9941 15.943 22.0889 16.1743 21.2741 16.632C20.4593 17.0897 19.8156 17.7234 19.3529 18.523C18.8902 19.3277 18.6538 20.2179 18.6538 21.1987C18.6538 22.7175 19.1869 23.9849 20.2481 25.0059C21.3093 26.0268 22.6421 26.5348 24.2414 26.5348C25.1769 26.5348 26.0469 26.3487 26.8516 25.9715C27.6563 25.5993 28.3202 25.0813 28.8433 24.4225L27.3445 23.135C27.0427 23.5373 26.6153 23.8692 26.0721 24.1308C25.5289 24.3973 24.9355 24.5281 24.3068 24.5281C23.487 24.5281 22.7829 24.3118 22.1995 23.8743C21.6161 23.4367 21.2339 22.8583 21.0528 22.1291H29.2456C29.2858 21.8424 29.306 21.5557 29.306 21.259C29.306 19.7351 28.803 18.4677 27.7921 17.4568C26.7712 16.4459 25.5038 15.943 23.9899 15.943ZM21.0277 20.3085C21.2087 19.5993 21.5658 19.026 22.0989 18.5935C22.632 18.1609 23.2557 17.9447 23.9698 17.9447C24.694 17.9447 25.3227 18.1609 25.8609 18.5935C26.399 19.026 26.751 19.5993 26.922 20.3085H21.0277Z" fill="#3C34E5"/>
<path d="M16.9036 12.6035L13.8407 23.1098L10.7527 12.6035H8.67058L5.56748 23.1098L2.5197 12.6035H0L4.3202 26.2883H6.68399L9.67645 16.1492L12.6588 26.2883H15.0327L19.3428 12.6035H16.9036Z" fill="#3C34E5"/>
<path d="M61.4686 13.5541H59.2506V23.3361C59.2506 24.342 59.5222 25.1266 60.0654 25.6899C60.6085 26.2531 61.4132 26.5348 62.4744 26.5348C63.1584 26.5348 63.777 26.394 64.3252 26.1174V24.0352C63.8474 24.2666 63.3847 24.3822 62.9422 24.3822C62.4694 24.3822 62.1073 24.2666 61.8508 24.0302C61.5943 23.7938 61.4686 23.4468 61.4686 22.979V18.1961H64.3252V16.1794H61.4686V13.5541Z" fill="#3C34E5"/>
<path d="M81.6664 12.6035L78.6035 23.1098L75.5155 12.6035H73.4334L70.3303 23.1098L67.2825 12.6035H64.7628L69.083 26.2883H71.4468L74.4392 16.1492L77.4216 26.2883H79.7955L84.1056 12.6035H81.6664Z" fill="#3C34E5"/>
<path d="M91.6546 17.6278C90.7695 16.5063 89.5876 15.943 88.109 15.943C87.1735 15.943 86.3236 16.1743 85.5641 16.637C84.8047 17.0997 84.2062 17.7334 83.7787 18.5381C83.3512 19.3428 83.135 20.2481 83.135 21.2389C83.135 22.2347 83.3512 23.135 83.7787 23.9396C84.2062 24.7443 84.8047 25.3831 85.5641 25.8407C86.3236 26.3034 87.1735 26.5348 88.109 26.5348C89.5826 26.5348 90.7594 25.9715 91.6546 24.8399V26.2934H93.8826V16.1844H93.0981C92.3034 16.1844 91.6546 16.8282 91.6546 17.6278ZM90.7695 23.482C90.1811 24.0855 89.4367 24.3873 88.5465 24.3873C87.6463 24.3873 86.9019 24.0855 86.3034 23.482C85.7049 22.8785 85.4082 22.1291 85.4082 21.2389C85.4082 20.3437 85.7049 19.5893 86.3034 18.9857C86.9019 18.3822 87.6463 18.0805 88.5465 18.0805C89.4367 18.0805 90.176 18.3822 90.7695 18.9857C91.3579 19.5893 91.6546 20.3386 91.6546 21.2389C91.6546 22.1291 91.3579 22.8785 90.7695 23.482Z" fill="#3C34E5"/>
<path d="M97.9262 13.5541H95.7083V23.3361C95.7083 24.342 95.9799 25.1266 96.523 25.6899C97.0662 26.2531 97.8709 26.5348 98.9321 26.5348C99.6161 26.5348 100.235 26.394 100.783 26.1174V24.0352C100.305 24.2666 99.8424 24.3822 99.3998 24.3822C98.9271 24.3822 98.565 24.2666 98.3085 24.0302C98.052 23.7938 97.9262 23.4468 97.9262 22.979V18.1961H100.783V16.1794H97.9262V13.5541Z" fill="#3C34E5"/>
<path d="M106.712 18.0805C107.296 18.0805 107.824 18.2213 108.302 18.4979C108.78 18.7745 109.157 19.1517 109.423 19.6345L111.35 18.4627C110.882 17.6882 110.243 17.0746 109.428 16.622C108.614 16.1693 107.708 15.943 106.707 15.943C105.163 15.943 103.876 16.451 102.84 17.4669C101.804 18.4828 101.291 19.7402 101.291 21.2439C101.291 22.7477 101.809 24.0101 102.84 25.021C103.876 26.0369 105.163 26.5448 106.707 26.5448C107.703 26.5448 108.609 26.3185 109.423 25.8609C110.238 25.4032 110.882 24.7896 111.35 24.0151L109.423 22.8533C109.152 23.3261 108.78 23.6982 108.302 23.9799C107.829 24.2565 107.296 24.3973 106.707 24.3973C105.817 24.3973 105.068 24.0956 104.469 23.492C103.871 22.8885 103.569 22.1391 103.569 21.249C103.569 20.3588 103.871 19.6094 104.469 19.0008C105.073 18.3822 105.822 18.0805 106.712 18.0805Z" fill="#3C34E5"/>
<path d="M118.225 15.9329C116.776 15.9329 115.64 16.4711 114.815 17.5423V12H112.587V26.2934H114.815V20.6907C114.815 19.9011 115.061 19.2674 115.549 18.7896C116.042 18.3118 116.686 18.0704 117.485 18.0704C118.25 18.0704 118.858 18.3068 119.316 18.7795C119.774 19.2523 120.005 19.8759 120.005 20.6505V26.2883H122.223V19.9262C122.223 18.7242 121.856 17.7586 121.122 17.0293C120.392 16.3001 119.427 15.9329 118.225 15.9329Z" fill="#3C34E5"/>
<path d="M132.714 17.4568C131.703 16.4459 130.441 15.943 128.922 15.943C127.926 15.943 127.021 16.1743 126.206 16.632C125.391 17.0897 124.748 17.7234 124.285 18.523C123.822 19.3277 123.586 20.2179 123.586 21.1987C123.586 22.7175 124.119 23.9849 125.18 25.0059C126.241 26.0268 127.574 26.5348 129.174 26.5348C130.109 26.5348 130.979 26.3487 131.784 25.9715C132.588 25.5993 133.252 25.0813 133.775 24.4225L132.277 23.135C131.975 23.5373 131.547 23.8692 131.004 24.1308C130.461 24.3973 129.868 24.5281 129.239 24.5281C128.419 24.5281 127.715 24.3118 127.132 23.8743C126.548 23.4367 126.166 22.8583 125.985 22.1291H134.178C134.218 21.8424 134.238 21.5557 134.238 21.259C134.228 19.7351 133.725 18.4677 132.714 17.4568ZM125.96 20.3085C126.141 19.5993 126.498 19.026 127.031 18.5935C127.564 18.1609 128.188 17.9447 128.902 17.9447C129.626 17.9447 130.255 18.1609 130.793 18.5935C131.331 19.026 131.683 19.5993 131.854 20.3085H125.96Z" fill="#3C34E5"/>
<path d="M137.703 17.658V16.1743H135.475V26.2833H137.703V21.3646C137.703 20.4241 137.985 19.6748 138.543 19.1215C139.101 18.5683 139.871 18.2917 140.852 18.2917H141.229V16.0034H140.852C139.559 16.0134 138.508 16.5616 137.703 17.658Z" fill="#3C34E5"/>
<path d="M149.572 21.767C149.447 21.5809 149.281 21.4099 149.075 21.254C148.868 21.0981 148.672 20.9673 148.486 20.8667C148.3 20.7661 148.064 20.6706 147.782 20.575C147.5 20.4795 147.264 20.4091 147.073 20.3638C146.882 20.3135 146.64 20.2582 146.354 20.1928C146.097 20.1324 145.896 20.0872 145.76 20.052C145.619 20.0168 145.448 19.9665 145.247 19.9061C145.046 19.8458 144.89 19.7854 144.785 19.7251C144.684 19.6647 144.573 19.5943 144.463 19.5138C144.352 19.4283 144.272 19.3378 144.226 19.2322C144.181 19.1316 144.161 19.0109 144.161 18.8852C144.161 18.5482 144.332 18.2967 144.669 18.1207C145.006 17.9447 145.438 17.8592 145.961 17.8592C146.942 17.8592 147.822 18.1911 148.597 18.8449L149.769 17.2758C148.682 16.3806 147.405 15.9279 145.926 15.9279C145.177 15.9279 144.508 16.0386 143.909 16.2598C143.316 16.4811 142.833 16.8332 142.456 17.311C142.084 17.7888 141.893 18.3621 141.893 19.036C141.893 19.3479 141.933 19.6295 142.018 19.891C142.104 20.1475 142.205 20.3738 142.33 20.5599C142.451 20.746 142.622 20.922 142.833 21.083C143.044 21.2439 143.246 21.3747 143.427 21.4702C143.613 21.5658 143.844 21.6664 144.131 21.7619C144.417 21.8575 144.649 21.9329 144.84 21.9782C145.026 22.0285 145.267 22.0889 145.564 22.1593C145.861 22.2297 146.092 22.29 146.258 22.3353C146.424 22.3806 146.615 22.4409 146.837 22.5214C147.058 22.5968 147.224 22.6773 147.334 22.7628C147.445 22.8483 147.546 22.9489 147.626 23.0746C147.707 23.1953 147.747 23.3361 147.747 23.492C147.747 23.8391 147.561 24.1157 147.184 24.3118C146.811 24.508 146.329 24.6085 145.74 24.6085C144.563 24.6085 143.562 24.2112 142.728 23.4166L141.566 24.9757C142.743 26.0067 144.141 26.5247 145.77 26.5247C146.57 26.5247 147.284 26.404 147.913 26.1576C148.541 25.9111 149.049 25.539 149.427 25.0411C149.809 24.5381 150 23.9497 150 23.2758C150 22.974 149.96 22.6924 149.879 22.4308C149.799 22.1693 149.698 21.948 149.572 21.767Z" fill="#3C34E5"/>
<path d="M32.062 12.005C31.6597 12.005 31.3277 12.1358 31.0562 12.4023C30.7846 12.6689 30.6488 13.0008 30.6488 13.4082C30.6488 13.8005 30.7846 14.1324 31.0562 14.404C31.3277 14.6756 31.6597 14.8114 32.062 14.8114C32.4694 14.8114 32.8064 14.6756 33.078 14.4091C33.3495 14.1425 33.4853 13.8055 33.4853 13.4082C33.4853 13.0008 33.3495 12.6689 33.078 12.4023C32.8064 12.1358 32.4694 12.005 32.062 12.005Z" fill="#3C34E5"/>
<path d="M33.1735 16.1794H30.9505V26.2883H33.1735V16.1794Z" fill="#3C34E5"/>
</svg>
