<?xml version="1.0" encoding="UTF-8"?>
<svg xmlns="http://www.w3.org/2000/svg" width="320" height="23" viewBox="0 0 320 23" fill="none">
  <path d="M7.47 22C7.25 22 7.07 21.93 6.93 21.79C6.79 21.65 6.72 21.47 6.72 21.25V5.71H1.38C1.16 5.71 0.98 5.64 0.84 5.5C0.7 5.34 0.63 5.16 0.63 4.96V1.75C0.63 1.53 0.7 1.35 0.84 1.21C0.98 1.07 1.16 0.999999 1.38 0.999999H17.52C17.74 0.999999 17.92 1.07 18.06 1.21C18.2 1.35 18.27 1.53 18.27 1.75V4.96C18.27 5.16 18.2 5.34 18.06 5.5C17.92 5.64 17.74 5.71 17.52 5.71H12.18V21.25C12.18 21.47 12.11 21.65 11.97 21.79C11.83 21.93 11.65 22 11.43 22H7.47ZM21.7465 22C21.5265 22 21.3465 21.93 21.2065 21.79C21.0665 21.65 20.9965 21.47 20.9965 21.25V1.75C20.9965 1.53 21.0665 1.35 21.2065 1.21C21.3465 1.07 21.5265 0.999999 21.7465 0.999999H25.6165C25.8365 0.999999 26.0165 1.07 26.1565 1.21C26.2965 1.35 26.3665 1.53 26.3665 1.75V8.98H33.7765V1.75C33.7765 1.53 33.8465 1.35 33.9865 1.21C34.1265 1.07 34.3065 0.999999 34.5265 0.999999H38.3965C38.6165 0.999999 38.7965 1.07 38.9365 1.21C39.0765 1.35 39.1465 1.53 39.1465 1.75V21.25C39.1465 21.47 39.0765 21.65 38.9365 21.79C38.7965 21.93 38.6165 22 38.3965 22H34.5265C34.3065 22 34.1265 21.93 33.9865 21.79C33.8465 21.65 33.7765 21.47 33.7765 21.25V13.78H26.3665V21.25C26.3665 21.47 26.2965 21.65 26.1565 21.79C26.0165 21.93 25.8365 22 25.6165 22H21.7465ZM44.1 22C43.88 22 43.7 21.93 43.56 21.79C43.42 21.65 43.35 21.47 43.35 21.25V1.75C43.35 1.53 43.42 1.35 43.56 1.21C43.7 1.07 43.88 0.999999 44.1 0.999999H58.11C58.33 0.999999 58.51 1.07 58.65 1.21C58.79 1.35 58.86 1.53 58.86 1.75V4.57C58.86 4.79 58.79 4.97 58.65 5.11C58.51 5.25 58.33 5.32 58.11 5.32H48.54V9.37H57.45C57.67 9.37 57.85 9.45 57.99 9.61C58.13 9.75 58.2 9.93 58.2 10.15V12.76C58.2 12.96 58.13 13.14 57.99 13.3C57.85 13.44 57.67 13.51 57.45 13.51H48.54V17.68H58.35C58.57 17.68 58.75 17.75 58.89 17.89C59.03 18.03 59.1 18.21 59.1 18.43V21.25C59.1 21.47 59.03 21.65 58.89 21.79C58.75 21.93 58.57 22 58.35 22H44.1ZM77.5069 22.3C75.6069 22.3 73.9769 21.99 72.6169 21.37C71.2769 20.75 70.2269 19.84 69.4669 18.64C68.7269 17.44 68.3169 15.95 68.2369 14.17C68.2169 13.35 68.2069 12.47 68.2069 11.53C68.2069 10.59 68.2169 9.69 68.2369 8.83C68.3169 7.09 68.7369 5.62 69.4969 4.42C70.2569 3.2 71.3169 2.28 72.6769 1.66C74.0369 1.02 75.6469 0.699999 77.5069 0.699999C78.8269 0.699999 80.0469 0.869999 81.1669 1.21C82.2869 1.53 83.2669 2.01 84.1069 2.65C84.9469 3.27 85.5969 4.03 86.0569 4.93C86.5369 5.81 86.7869 6.81 86.8069 7.93C86.8269 8.11 86.7669 8.26 86.6269 8.38C86.5069 8.5 86.3569 8.56 86.1769 8.56H82.1269C81.8669 8.56 81.6669 8.51 81.5269 8.41C81.3869 8.29 81.2669 8.08 81.1669 7.78C80.8869 6.72 80.4269 6 79.7869 5.62C79.1669 5.22 78.3969 5.02 77.4769 5.02C76.3769 5.02 75.5069 5.33 74.8669 5.95C74.2269 6.55 73.8769 7.56 73.8169 8.98C73.7569 10.62 73.7569 12.3 73.8169 14.02C73.8769 15.44 74.2269 16.46 74.8669 17.08C75.5069 17.68 76.3769 17.98 77.4769 17.98C78.3969 17.98 79.1769 17.78 79.8169 17.38C80.4569 16.98 80.9069 16.26 81.1669 15.22C81.2469 14.92 81.3569 14.72 81.4969 14.62C81.6569 14.5 81.8669 14.44 82.1269 14.44H86.1769C86.3569 14.44 86.5069 14.5 86.6269 14.62C86.7669 14.74 86.8269 14.89 86.8069 15.07C86.7869 16.19 86.5369 17.2 86.0569 18.1C85.5969 18.98 84.9469 19.74 84.1069 20.38C83.2669 21 82.2869 21.48 81.1669 21.82C80.0469 22.14 78.8269 22.3 77.5069 22.3ZM88.4977 22C88.3377 22 88.1877 21.94 88.0477 21.82C87.9277 21.68 87.8677 21.53 87.8677 21.37C87.8677 21.27 87.8777 21.18 87.8977 21.1L94.9477 1.84C95.0077 1.62 95.1277 1.43 95.3077 1.27C95.5077 1.09 95.7777 0.999999 96.1177 0.999999H100.558C100.898 0.999999 101.158 1.09 101.338 1.27C101.538 1.43 101.668 1.62 101.728 1.84L108.748 21.1C108.788 21.18 108.808 21.27 108.808 21.37C108.808 21.53 108.738 21.68 108.598 21.82C108.478 21.94 108.328 22 108.148 22H104.458C104.158 22 103.928 21.93 103.768 21.79C103.628 21.63 103.538 21.49 103.498 21.37L102.328 18.31H94.3177L93.1777 21.37C93.1377 21.49 93.0477 21.63 92.9077 21.79C92.7677 21.93 92.5277 22 92.1877 22H88.4977ZM95.5477 13.99H101.128L98.3077 6.07L95.5477 13.99ZM114.404 22C114.184 22 114.004 21.93 113.864 21.79C113.724 21.65 113.654 21.47 113.654 21.25V5.71H108.314C108.094 5.71 107.914 5.64 107.774 5.5C107.634 5.34 107.564 5.16 107.564 4.96V1.75C107.564 1.53 107.634 1.35 107.774 1.21C107.914 1.07 108.094 0.999999 108.314 0.999999H124.454C124.674 0.999999 124.854 1.07 124.994 1.21C125.134 1.35 125.204 1.53 125.204 1.75V4.96C125.204 5.16 125.134 5.34 124.994 5.5C124.854 5.64 124.674 5.71 124.454 5.71H119.114V21.25C119.114 21.47 119.044 21.65 118.904 21.79C118.764 21.93 118.584 22 118.364 22H114.404ZM128.68 22C128.46 22 128.28 21.93 128.14 21.79C128 21.65 127.93 21.47 127.93 21.25V1.75C127.93 1.53 128 1.35 128.14 1.21C128.28 1.07 128.46 0.999999 128.68 0.999999H136.84C139.42 0.999999 141.45 1.6 142.93 2.8C144.43 3.98 145.18 5.66 145.18 7.84C145.18 9.26 144.83 10.46 144.13 11.44C143.45 12.42 142.55 13.16 141.43 13.66L145.57 21.04C145.63 21.16 145.66 21.27 145.66 21.37C145.66 21.53 145.59 21.68 145.45 21.82C145.33 21.94 145.18 22 145 22H141.04C140.66 22 140.38 21.91 140.2 21.73C140.02 21.53 139.89 21.35 139.81 21.19L136.39 14.59H133.3V21.25C133.3 21.47 133.23 21.65 133.09 21.79C132.95 21.93 132.77 22 132.55 22H128.68ZM133.3 10.36H136.78C137.72 10.36 138.42 10.13 138.88 9.67C139.36 9.21 139.6 8.58 139.6 7.78C139.6 7 139.37 6.37 138.91 5.89C138.47 5.41 137.76 5.17 136.78 5.17H133.3V10.36ZM147.472 22C147.312 22 147.162 21.94 147.022 21.82C146.902 21.68 146.842 21.53 146.842 21.37C146.842 21.27 146.852 21.18 146.872 21.1L153.922 1.84C153.982 1.62 154.102 1.43 154.282 1.27C154.482 1.09 154.752 0.999999 155.092 0.999999H159.532C159.872 0.999999 160.132 1.09 160.312 1.27C160.512 1.43 160.642 1.62 160.702 1.84L167.722 21.1C167.762 21.18 167.782 21.27 167.782 21.37C167.782 21.53 167.712 21.68 167.572 21.82C167.452 21.94 167.302 22 167.122 22H163.432C163.132 22 162.902 21.93 162.742 21.79C162.602 21.63 162.512 21.49 162.472 21.37L161.302 18.31H153.292L152.152 21.37C152.112 21.49 152.022 21.63 151.882 21.79C151.742 21.93 151.502 22 151.162 22H147.472ZM154.522 13.99H160.102L157.282 6.07L154.522 13.99ZM170.897 22C170.677 22 170.497 21.93 170.357 21.79C170.217 21.65 170.147 21.47 170.147 21.25V1.75C170.147 1.53 170.217 1.35 170.357 1.21C170.497 1.07 170.677 0.999999 170.897 0.999999H174.077C174.417 0.999999 174.657 1.08 174.797 1.24C174.957 1.38 175.057 1.49 175.097 1.57L182.417 13.12V1.75C182.417 1.53 182.487 1.35 182.627 1.21C182.767 1.07 182.947 0.999999 183.167 0.999999H186.767C186.987 0.999999 187.167 1.07 187.307 1.21C187.447 1.35 187.517 1.53 187.517 1.75V21.25C187.517 21.45 187.447 21.63 187.307 21.79C187.167 21.93 186.987 22 186.767 22H183.557C183.237 22 182.997 21.92 182.837 21.76C182.697 21.6 182.607 21.49 182.567 21.43L175.247 10.33V21.25C175.247 21.47 175.177 21.65 175.037 21.79C174.897 21.93 174.717 22 174.497 22H170.897Z" fill="#151515"></path>
  <path d="M196.896 22C196.736 22 196.586 21.94 196.446 21.82C196.326 21.68 196.266 21.53 196.266 21.37C196.266 21.27 196.276 21.18 196.296 21.1L203.346 1.84C203.406 1.62 203.526 1.43 203.706 1.27C203.906 1.09 204.176 0.999999 204.516 0.999999H208.956C209.296 0.999999 209.556 1.09 209.736 1.27C209.936 1.43 210.066 1.62 210.126 1.84L217.146 21.1C217.186 21.18 217.206 21.27 217.206 21.37C217.206 21.53 217.136 21.68 216.996 21.82C216.876 21.94 216.726 22 216.546 22H212.856C212.556 22 212.326 21.93 212.166 21.79C212.026 21.63 211.936 21.49 211.896 21.37L210.726 18.31H202.716L201.576 21.37C201.536 21.49 201.446 21.63 201.306 21.79C201.166 21.93 200.926 22 200.586 22H196.896ZM203.946 13.99H209.526L206.706 6.07L203.946 13.99ZM227.801 22.3C225.901 22.3 224.261 21.99 222.881 21.37C221.521 20.73 220.461 19.81 219.701 18.61C218.961 17.39 218.551 15.91 218.471 14.17C218.451 13.31 218.441 12.4 218.441 11.44C218.441 10.46 218.451 9.53 218.471 8.65C218.551 6.95 218.971 5.51 219.731 4.33C220.491 3.15 221.561 2.25 222.941 1.63C224.321 1.01 225.941 0.699999 227.801 0.699999C229.301 0.699999 230.631 0.889999 231.791 1.27C232.951 1.63 233.921 2.12 234.701 2.74C235.501 3.36 236.101 4.04 236.501 4.78C236.921 5.52 237.141 6.25 237.161 6.97C237.181 7.15 237.121 7.3 236.981 7.42C236.861 7.54 236.711 7.6 236.531 7.6H232.151C231.931 7.6 231.761 7.57 231.641 7.51C231.541 7.43 231.451 7.32 231.371 7.18C231.231 6.88 231.021 6.57 230.741 6.25C230.481 5.91 230.111 5.62 229.631 5.38C229.171 5.14 228.561 5.02 227.801 5.02C226.661 5.02 225.761 5.32 225.101 5.92C224.461 6.52 224.111 7.48 224.051 8.8C223.991 10.52 223.991 12.26 224.051 14.02C224.111 15.42 224.481 16.43 225.161 17.05C225.841 17.67 226.741 17.98 227.861 17.98C228.621 17.98 229.291 17.85 229.871 17.59C230.471 17.33 230.941 16.93 231.281 16.39C231.621 15.83 231.791 15.12 231.791 14.26V13.69H228.971C228.751 13.69 228.561 13.62 228.401 13.48C228.261 13.32 228.191 13.13 228.191 12.91V10.69C228.191 10.47 228.261 10.29 228.401 10.15C228.561 9.99 228.751 9.91 228.971 9.91H236.531C236.751 9.91 236.931 9.99 237.071 10.15C237.211 10.29 237.281 10.47 237.281 10.69V14.11C237.281 15.83 236.891 17.3 236.111 18.52C235.331 19.74 234.221 20.68 232.781 21.34C231.361 21.98 229.701 22.3 227.801 22.3ZM241.473 22C241.253 22 241.073 21.93 240.933 21.79C240.793 21.65 240.723 21.47 240.723 21.25V1.75C240.723 1.53 240.793 1.35 240.933 1.21C241.073 1.07 241.253 0.999999 241.473 0.999999H255.483C255.703 0.999999 255.883 1.07 256.023 1.21C256.163 1.35 256.233 1.53 256.233 1.75V4.57C256.233 4.79 256.163 4.97 256.023 5.11C255.883 5.25 255.703 5.32 255.483 5.32H245.913V9.37H254.823C255.043 9.37 255.223 9.45 255.363 9.61C255.503 9.75 255.573 9.93 255.573 10.15V12.76C255.573 12.96 255.503 13.14 255.363 13.3C255.223 13.44 255.043 13.51 254.823 13.51H245.913V17.68H255.723C255.943 17.68 256.123 17.75 256.263 17.89C256.403 18.03 256.473 18.21 256.473 18.43V21.25C256.473 21.47 256.403 21.65 256.263 21.79C256.123 21.93 255.943 22 255.723 22H241.473ZM260.633 22C260.413 22 260.233 21.93 260.093 21.79C259.953 21.65 259.883 21.47 259.883 21.25V1.75C259.883 1.53 259.953 1.35 260.093 1.21C260.233 1.07 260.413 0.999999 260.633 0.999999H263.813C264.153 0.999999 264.393 1.08 264.533 1.24C264.693 1.38 264.793 1.49 264.833 1.57L272.153 13.12V1.75C272.153 1.53 272.223 1.35 272.363 1.21C272.503 1.07 272.683 0.999999 272.903 0.999999H276.503C276.723 0.999999 276.903 1.07 277.043 1.21C277.183 1.35 277.253 1.53 277.253 1.75V21.25C277.253 21.45 277.183 21.63 277.043 21.79C276.903 21.93 276.723 22 276.503 22H273.293C272.973 22 272.733 21.92 272.573 21.76C272.433 21.6 272.343 21.49 272.303 21.43L264.983 10.33V21.25C264.983 21.47 264.913 21.65 264.773 21.79C264.633 21.93 264.453 22 264.233 22H260.633ZM290.056 22.3C288.156 22.3 286.526 21.99 285.166 21.37C283.826 20.75 282.776 19.84 282.016 18.64C281.276 17.44 280.866 15.95 280.786 14.17C280.766 13.35 280.756 12.47 280.756 11.53C280.756 10.59 280.766 9.69 280.786 8.83C280.866 7.09 281.286 5.62 282.046 4.42C282.806 3.2 283.866 2.28 285.226 1.66C286.586 1.02 288.196 0.699999 290.056 0.699999C291.376 0.699999 292.596 0.869999 293.716 1.21C294.836 1.53 295.816 2.01 296.656 2.65C297.496 3.27 298.146 4.03 298.606 4.93C299.086 5.81 299.336 6.81 299.356 7.93C299.376 8.11 299.316 8.26 299.176 8.38C299.056 8.5 298.906 8.56 298.726 8.56H294.676C294.416 8.56 294.216 8.51 294.076 8.41C293.936 8.29 293.816 8.08 293.716 7.78C293.436 6.72 292.976 6 292.336 5.62C291.716 5.22 290.946 5.02 290.026 5.02C288.926 5.02 288.056 5.33 287.416 5.95C286.776 6.55 286.426 7.56 286.366 8.98C286.306 10.62 286.306 12.3 286.366 14.02C286.426 15.44 286.776 16.46 287.416 17.08C288.056 17.68 288.926 17.98 290.026 17.98C290.946 17.98 291.726 17.78 292.366 17.38C293.006 16.98 293.456 16.26 293.716 15.22C293.796 14.92 293.906 14.72 294.046 14.62C294.206 14.5 294.416 14.44 294.676 14.44H298.726C298.906 14.44 299.056 14.5 299.176 14.62C299.316 14.74 299.376 14.89 299.356 15.07C299.336 16.19 299.086 17.2 298.606 18.1C298.146 18.98 297.496 19.74 296.656 20.38C295.816 21 294.836 21.48 293.716 21.82C292.596 22.14 291.376 22.3 290.056 22.3ZM308.074 22C307.874 22 307.694 21.93 307.534 21.79C307.394 21.65 307.324 21.47 307.324 21.25V14.8L300.364 1.96C300.344 1.9 300.324 1.85 300.304 1.81C300.284 1.75 300.274 1.69 300.274 1.63C300.274 1.47 300.334 1.33 300.454 1.21C300.594 1.07 300.754 0.999999 300.934 0.999999H304.684C304.984 0.999999 305.214 1.08 305.374 1.24C305.554 1.38 305.664 1.51 305.704 1.63L310.024 9.37L314.344 1.63C314.404 1.51 314.514 1.38 314.674 1.24C314.854 1.08 315.094 0.999999 315.394 0.999999H319.144C319.324 0.999999 319.474 1.07 319.594 1.21C319.714 1.33 319.774 1.47 319.774 1.63C319.774 1.69 319.764 1.75 319.744 1.81C319.744 1.85 319.734 1.9 319.714 1.96L312.724 14.8V21.25C312.724 21.47 312.654 21.65 312.514 21.79C312.374 21.93 312.194 22 311.974 22H308.074Z" fill="#6EA4CA"></path>
</svg>
